<svg id="Слой_1" data-name="Слой 1" xmlns="http://www.w3.org/2000/svg" viewBox="0 0 72.11 89.26"><title>arrow</title><g id="Canvas"><g id="Vector"><path id="path0_fill" data-name="path0 fill" d="M75.38,59h0L35.1,20.28A2,2,0,0,0,34.6,20a2,2,0,0,0-1.8-1.08,2,2,0,0,0-2.06,2V76.13a1.81,1.81,0,0,0,.55,1.46,2,2,0,0,0,2.79,0L45.48,66.81l10.33,26a2.09,2.09,0,0,0,2.69,1.06l7.59-3.05a2,2,0,0,0,1.1-2.59L56.94,62.4h17a2,2,0,0,0,2.06-2A1.94,1.94,0,0,0,75.38,59Zm-21.57-.58a2,2,0,0,0-2.06,2,1.89,1.89,0,0,0,.25.9L62.6,87.91l-3.8,1.53L48.17,62.76a2,2,0,0,0-.51-0.68h0a2,2,0,0,0-2.79,0l-0.05.05,0,0-9.94,9.4V25.64L69,58.45H53.81Z" transform="translate(-3.89 -4.74)"/></g></g><g id="Canvas-2" data-name="Canvas"><g id="Vector-2" data-name="Vector"><path id="path0_fill-2" data-name="path0 fill" d="M20.35,17.6a2,2,0,0,0-2.06-2H6a2,2,0,1,0,0,4H18.29A2,2,0,0,0,20.35,17.6ZM21,26.77l-8.73,8.39a1.92,1.92,0,0,0,0,2.8,2.11,2.11,0,0,0,2.91,0l8.73-8.39a1.92,1.92,0,0,0,0-2.8A2.12,2.12,0,0,0,21,26.77Zm36.35-21A2.1,2.1,0,0,0,54.49,5L43.8,10.94a1.94,1.94,0,0,0-.75,2.7,2.1,2.1,0,0,0,2.81.72L56.55,8.43A1.94,1.94,0,0,0,57.3,5.73Z" transform="translate(-3.89 -4.74)"/></g></g></svg>